<?xml version="1.0" encoding="utf-8"?>
<!-- Generator: Adobe Illustrator 16.0.0, SVG Export Plug-In . SVG Version: 6.00 Build 0)  -->
<!DOCTYPE svg PUBLIC "-//W3C//DTD SVG 1.1//EN" "http://www.w3.org/Graphics/SVG/1.1/DTD/svg11.dtd">
<svg version="1.1" id="Layer_1" xmlns="http://www.w3.org/2000/svg" xmlns:xlink="http://www.w3.org/1999/xlink" x="0px" y="0px"
	 width="1366px" height="768px" viewBox="0 0 1366 768" enable-background="new 0 0 1366 768" xml:space="preserve">
<path opacity="0.9" fill="#FFB6F5" enable-background="new    " d="M219.979,106.199c19.703,7.087,34.539,23.252,48.318,39.017
	c13.78,15.765,28.065,32.249,47.359,40.383c19.294,8.133,45.175,4.906,56.218-12.884c7.877-12.689,6.188-29.658-1.103-42.693
	c-9.24-16.517-26.058-27.471-43.45-34.928c-17.396-7.458-35.912-12.067-53.24-19.678C236.87,59.073,204.687,28.86,164.307,24.262
	c-12.388-1.411-25.44-0.136-36.299,5.992c-10.859,6.127-19.096,17.7-19.019,30.167c0.134,21.931,24.046,36.196,45.783,39.104
	C176.511,102.432,199.342,98.775,219.979,106.199z"/>
<g opacity="0.7">
	<path fill="#491044" d="M1108.343,112.024c-3.839-1.124-5.806,5.594-1.967,6.718
		C1111.174,120.147,1113.142,113.429,1108.343,112.024z"/>
	<path fill="#491044" d="M1120.819,115.678c-3.839-1.125-5.809,5.593-1.97,6.718C1123.65,123.8,1125.617,117.083,1120.819,115.678z"
		/>
	<path fill="#491044" d="M1133.295,119.331c-3.839-1.124-5.806,5.594-1.967,6.718
		C1136.126,127.454,1138.094,120.736,1133.295,119.331z"/>
	<path fill="#491044" d="M1145.771,122.984c-3.841-1.124-5.809,5.594-1.97,6.718C1148.604,131.107,1150.569,124.39,1145.771,122.984
		z"/>
	<path fill="#491044" d="M1158.247,126.638c-3.839-1.124-5.806,5.594-1.967,6.718
		C1161.078,134.761,1163.046,128.043,1158.247,126.638z"/>
	<path fill="#491044" d="M1170.724,130.291c-3.839-1.124-5.807,5.594-1.968,6.718
		C1173.555,138.414,1175.521,131.696,1170.724,130.291z"/>
	<path fill="#491044" d="M1183.199,133.945c-3.839-1.125-5.808,5.594-1.967,6.718C1186.03,142.068,1187.998,135.35,1183.199,133.945
		z"/>
	<path fill="#491044" d="M1195.676,137.598c-3.839-1.124-5.807,5.594-1.968,6.718
		C1198.507,145.721,1200.474,139.003,1195.676,137.598z"/>
	<path fill="#491044" d="M1111.715,100.508c-3.838-1.125-5.806,5.594-1.967,6.718
		C1114.547,108.631,1116.514,101.913,1111.715,100.508z"/>
	<path fill="#491044" d="M1124.191,104.161c-3.84-1.124-5.808,5.594-1.97,6.718C1127.021,112.284,1128.99,105.566,1124.191,104.161z
		"/>
	<path fill="#491044" d="M1136.667,107.814c-3.839-1.124-5.806,5.594-1.967,6.718
		C1139.499,115.938,1141.466,109.22,1136.667,107.814z"/>
	<path fill="#491044" d="M1149.145,111.468c-3.84-1.124-5.807,5.594-1.969,6.718
		C1151.975,119.591,1153.942,112.873,1149.145,111.468z"/>
	<path fill="#491044" d="M1161.619,115.122c-3.838-1.125-5.807,5.594-1.967,6.718
		C1164.451,123.245,1166.418,116.526,1161.619,115.122z"/>
	<path fill="#491044" d="M1174.096,118.775c-3.839-1.124-5.806,5.594-1.968,6.718
		C1176.927,126.898,1178.895,120.18,1174.096,118.775z"/>
	<path fill="#491044" d="M1186.571,122.428c-3.839-1.124-5.808,5.594-1.968,6.718
		C1189.403,130.551,1191.37,123.833,1186.571,122.428z"/>
	<path fill="#491044" d="M1199.048,126.082c-3.839-1.124-5.806,5.594-1.968,6.718
		C1201.879,134.205,1203.846,127.487,1199.048,126.082z"/>
	<path fill="#491044" d="M1115.088,88.991c-3.839-1.124-5.807,5.594-1.968,6.718C1117.919,97.114,1119.886,90.396,1115.088,88.991z"
		/>
	<path fill="#491044" d="M1127.563,92.645c-3.839-1.124-5.806,5.594-1.967,6.718C1130.395,100.768,1132.362,94.05,1127.563,92.645z"
		/>
	<path fill="#491044" d="M1140.04,96.298c-3.839-1.125-5.807,5.594-1.968,6.718C1142.871,104.421,1144.838,97.703,1140.04,96.298z"
		/>
	<path fill="#491044" d="M1152.516,99.952c-3.839-1.124-5.806,5.594-1.967,6.718C1155.347,108.075,1157.314,101.357,1152.516,99.952
		z"/>
	<path fill="#491044" d="M1164.992,103.605c-3.839-1.124-5.809,5.594-1.969,6.718C1167.823,111.728,1169.79,105.01,1164.992,103.605
		z"/>
	<path fill="#491044" d="M1177.468,107.258c-3.839-1.124-5.806,5.594-1.967,6.718
		C1180.299,115.381,1182.267,108.664,1177.468,107.258z"/>
	<path fill="#491044" d="M1189.944,110.912c-3.839-1.125-5.809,5.594-1.97,6.718
		C1192.775,119.035,1194.742,112.317,1189.944,110.912z"/>
	<path fill="#491044" d="M1202.42,114.565c-3.839-1.124-5.806,5.594-1.967,6.718C1205.251,122.688,1207.219,115.971,1202.42,114.565
		z"/>
	<path fill="#491044" d="M1118.46,77.475c-3.839-1.125-5.806,5.593-1.967,6.718C1121.291,85.598,1123.259,78.88,1118.46,77.475z"/>
	<path fill="#491044" d="M1130.938,81.128c-3.84-1.124-5.808,5.594-1.969,6.718C1133.768,89.251,1135.734,82.534,1130.938,81.128z"
		/>
	<path fill="#491044" d="M1143.412,84.782c-3.839-1.124-5.807,5.594-1.967,6.718C1146.243,92.905,1148.211,86.187,1143.412,84.782z"
		/>
	<path fill="#491044" d="M1155.889,88.435c-3.839-1.124-5.807,5.594-1.968,6.718C1158.72,96.558,1160.688,89.84,1155.889,88.435z"/>
	<path fill="#491044" d="M1168.364,92.089c-3.839-1.125-5.808,5.594-1.968,6.718C1171.195,100.212,1173.163,93.494,1168.364,92.089z
		"/>
	<path fill="#491044" d="M1180.841,95.742c-3.839-1.124-5.807,5.594-1.968,6.718C1183.672,103.865,1185.639,97.147,1180.841,95.742z
		"/>
	<path fill="#491044" d="M1193.316,99.396c-3.84-1.124-5.808,5.594-1.969,6.718C1196.146,107.519,1198.115,100.801,1193.316,99.396z
		"/>
	<path fill="#491044" d="M1205.793,103.049c-3.839-1.124-5.807,5.594-1.968,6.718
		C1208.624,111.172,1210.591,104.454,1205.793,103.049z"/>
	<path fill="#491044" d="M1121.832,65.958c-3.838-1.124-5.806,5.594-1.967,6.718C1124.664,74.082,1126.631,67.364,1121.832,65.958z"
		/>
	<path fill="#491044" d="M1134.309,69.612c-3.839-1.124-5.806,5.594-1.967,6.718C1137.14,77.735,1139.107,71.017,1134.309,69.612z"
		/>
	<path fill="#491044" d="M1146.784,73.266c-3.839-1.125-5.806,5.594-1.967,6.718C1149.616,81.389,1151.583,74.67,1146.784,73.266z"
		/>
	<path fill="#491044" d="M1159.261,76.919c-3.839-1.124-5.806,5.594-1.968,6.718C1162.092,85.042,1164.061,78.324,1159.261,76.919z"
		/>
	<path fill="#491044" d="M1171.736,80.572c-3.838-1.124-5.808,5.594-1.969,6.718C1174.568,88.695,1176.535,81.978,1171.736,80.572z"
		/>
	<path fill="#491044" d="M1184.213,84.226c-3.839-1.124-5.806,5.594-1.967,6.718C1187.044,92.349,1189.012,85.631,1184.213,84.226z"
		/>
	<path fill="#491044" d="M1196.688,87.879c-3.839-1.125-5.806,5.593-1.967,6.718C1199.521,96.002,1201.487,89.284,1196.688,87.879z"
		/>
	<path fill="#491044" d="M1209.165,91.533c-3.839-1.124-5.806,5.594-1.968,6.718C1211.996,99.656,1213.964,92.938,1209.165,91.533z"
		/>
	<path fill="#491044" d="M1125.205,54.442c-3.839-1.125-5.807,5.594-1.968,6.718C1128.036,62.565,1130.003,55.847,1125.205,54.442z"
		/>
	<path fill="#491044" d="M1137.681,58.096c-3.839-1.124-5.806,5.594-1.967,6.718C1140.512,66.219,1142.479,59.501,1137.681,58.096z"
		/>
	<path fill="#491044" d="M1150.157,61.749c-3.839-1.124-5.809,5.594-1.968,6.718C1152.988,69.872,1154.955,63.154,1150.157,61.749z"
		/>
	<path fill="#491044" d="M1162.633,65.402c-3.839-1.124-5.806,5.594-1.967,6.718C1165.465,73.525,1167.432,66.808,1162.633,65.402z"
		/>
	<path fill="#491044" d="M1175.109,69.056c-3.84-1.124-5.809,5.594-1.97,6.718C1177.939,77.179,1179.907,70.461,1175.109,69.056z"/>
	<path fill="#491044" d="M1187.585,72.709c-3.839-1.125-5.806,5.594-1.967,6.718C1190.416,80.833,1192.384,74.114,1187.585,72.709z"
		/>
	<path fill="#491044" d="M1200.063,76.363c-3.84-1.124-5.808,5.594-1.969,6.718C1202.893,84.486,1204.859,77.768,1200.063,76.363z"
		/>
	<path fill="#491044" d="M1212.537,80.016c-3.839-1.124-5.807,5.594-1.967,6.718C1215.368,88.139,1217.336,81.421,1212.537,80.016z"
		/>
	<path fill="#491044" d="M1128.577,42.926c-3.839-1.124-5.806,5.594-1.967,6.718C1131.408,51.049,1133.376,44.331,1128.577,42.926z"
		/>
	<path fill="#491044" d="M1141.054,46.579c-3.839-1.124-5.807,5.594-1.968,6.718C1143.885,54.702,1145.852,47.984,1141.054,46.579z"
		/>
	<path fill="#491044" d="M1153.529,50.233c-3.839-1.125-5.808,5.593-1.967,6.718C1156.36,58.355,1158.328,51.638,1153.529,50.233z"
		/>
	<path fill="#491044" d="M1166.006,53.886c-3.839-1.124-5.807,5.594-1.968,6.718C1168.837,62.009,1170.804,55.292,1166.006,53.886z"
		/>
	<path fill="#491044" d="M1178.48,57.54c-3.84-1.124-5.807,5.594-1.968,6.718C1181.313,65.663,1183.28,58.945,1178.48,57.54z"/>
	<path fill="#491044" d="M1190.958,61.193c-3.839-1.124-5.807,5.594-1.968,6.718C1193.789,69.316,1195.756,62.598,1190.958,61.193z"
		/>
	<path fill="#491044" d="M1203.434,64.846c-3.839-1.124-5.806,5.594-1.967,6.718C1206.265,72.97,1208.232,66.251,1203.434,64.846z"
		/>
	<path fill="#491044" d="M1215.91,68.5c-3.839-1.125-5.807,5.594-1.968,6.718C1218.741,76.623,1220.708,69.905,1215.91,68.5z"/>
	<path fill="#491044" d="M1131.949,31.409c-3.838-1.124-5.808,5.594-1.967,6.718C1134.781,39.533,1136.748,32.814,1131.949,31.409z"
		/>
	<path fill="#491044" d="M1144.426,35.063c-3.839-1.125-5.806,5.594-1.967,6.718C1147.257,43.186,1149.225,36.468,1144.426,35.063z"
		/>
	<path fill="#491044" d="M1156.901,38.716c-3.839-1.124-5.808,5.594-1.969,6.718C1159.733,46.839,1161.7,40.122,1156.901,38.716z"/>
	<path fill="#491044" d="M1169.378,42.37c-3.839-1.124-5.806,5.594-1.967,6.718C1172.209,50.493,1174.177,43.775,1169.378,42.37z"/>
	<path fill="#491044" d="M1181.854,46.023c-3.838-1.125-5.806,5.593-1.967,6.718C1184.686,54.146,1186.652,47.428,1181.854,46.023z"
		/>
	<path fill="#491044" d="M1194.33,49.677c-3.839-1.124-5.807,5.594-1.967,6.718C1197.161,57.8,1199.129,51.082,1194.33,49.677z"/>
	<path fill="#491044" d="M1206.806,53.33c-3.839-1.124-5.806,5.594-1.967,6.718C1209.638,61.453,1211.604,54.735,1206.806,53.33z"/>
	<path fill="#491044" d="M1219.282,56.983c-3.839-1.124-5.808,5.594-1.968,6.718C1222.113,65.106,1224.081,58.389,1219.282,56.983z"
		/>
	<path fill="#491044" d="M1135.322,19.893c-3.839-1.124-5.809,5.594-1.969,6.718C1138.153,28.016,1140.121,21.298,1135.322,19.893z"
		/>
	<path fill="#491044" d="M1147.798,23.546c-3.839-1.124-5.806,5.594-1.967,6.718C1150.629,31.669,1152.597,24.952,1147.798,23.546z"
		/>
	<path fill="#491044" d="M1160.274,27.2c-3.839-1.124-5.809,5.594-1.97,6.718C1163.105,35.323,1165.072,28.605,1160.274,27.2z"/>
	<path fill="#491044" d="M1172.75,30.854c-3.839-1.125-5.806,5.594-1.967,6.718C1175.582,38.977,1177.549,32.258,1172.75,30.854z"/>
	<path fill="#491044" d="M1185.227,34.507c-3.839-1.124-5.807,5.594-1.968,6.718C1188.058,42.63,1190.025,35.912,1185.227,34.507z"
		/>
	<path fill="#491044" d="M1197.702,38.16c-3.839-1.124-5.806,5.594-1.967,6.718C1200.533,46.283,1202.501,39.565,1197.702,38.16z"/>
	<path fill="#491044" d="M1210.179,41.813c-3.839-1.124-5.807,5.594-1.968,6.718C1213.01,49.937,1214.977,43.219,1210.179,41.813z"
		/>
	<path fill="#491044" d="M1222.654,45.467c-3.839-1.125-5.808,5.594-1.967,6.718C1225.486,53.59,1227.453,46.872,1222.654,45.467z"
		/>
</g>
<g opacity="0.3">
	
		<linearGradient id="SVGID_1_" gradientUnits="userSpaceOnUse" x1="691.4541" y1="495.5986" x2="1220.584" y2="495.5986" gradientTransform="matrix(0.9975 0.0707 -0.0707 0.9975 -519.5859 -162.9494)">
		<stop  offset="0.007" style="stop-color:#FC6CE2"/>
		<stop  offset="1" style="stop-color:#B294EF"/>
	</linearGradient>
	<path fill="url(#SVGID_1_)" d="M646.515,582.365c-31.896,4.483-63.794,8.971-95.688,13.456
		c-63.393,8.914-126.78,17.827-190.171,26.741c-46.434,6.527-92.865,13.059-139.297,19.588c-3.379,0.475-6.759,0.948-10.138,1.426
		c1.472,0.979,2.944,1.959,4.416,2.938c-4.485-31.896-8.971-63.794-13.456-95.689c-8.914-63.392-17.828-126.78-26.741-190.17
		c-6.529-46.433-13.059-92.865-19.588-139.297c-0.475-3.38-0.95-6.759-1.425-10.139c-0.98,1.472-1.959,2.944-2.939,4.416
		c31.897-4.485,63.794-8.97,95.691-13.456c63.392-8.914,126.78-17.828,190.17-26.741c46.435-6.529,92.864-13.058,139.297-19.587
		c3.382-0.475,6.761-0.951,10.141-1.426c-1.475-0.979-2.944-1.959-4.416-2.939c4.482,31.897,8.97,63.794,13.455,95.691
		c8.914,63.39,17.828,126.78,26.74,190.169c6.528,46.434,13.06,92.864,19.589,139.297c0.475,3.381,0.948,6.761,1.426,10.14
		c0.673,4.789,8.026,3.299,7.354-1.479c-4.483-31.896-8.971-63.794-13.456-95.689c-8.911-63.392-17.825-126.78-26.738-190.17
		c-6.529-46.432-13.061-92.864-19.588-139.297c-0.478-3.379-0.95-6.759-1.428-10.138c-0.297-2.108-2.485-3.21-4.416-2.939
		c-31.896,4.485-63.794,8.971-95.688,13.456c-63.393,8.914-126.781,17.827-190.171,26.741
		c-46.432,6.529-92.865,13.058-139.297,19.587c-3.379,0.475-6.759,0.95-10.139,1.425c-2.108,0.297-3.21,2.487-2.938,4.417
		c4.485,31.897,8.97,63.794,13.456,95.691c8.914,63.39,17.828,126.78,26.741,190.168c6.529,46.435,13.058,92.864,19.587,139.299
		c0.475,3.379,0.951,6.759,1.426,10.139c0.296,2.106,2.487,3.21,4.416,2.938c31.897-4.483,63.794-8.971,95.691-13.456
		c63.392-8.912,126.781-17.825,190.17-26.739c46.435-6.528,92.864-13.06,139.298-19.587c3.381-0.478,6.76-0.951,10.14-1.428
		C652.78,589.047,651.291,581.694,646.515,582.365z"/>
</g>
<g opacity="0.3">
	
		<linearGradient id="SVGID_2_" gradientUnits="userSpaceOnUse" x1="1188.5635" y1="422.001" x2="1822.7451" y2="422.001" gradientTransform="matrix(1 0 0 1 -552 -23)">
		<stop  offset="0" style="stop-color:#6CBAFC"/>
		<stop  offset="0.3118" style="stop-color:#6DBDF9"/>
		<stop  offset="0.5319" style="stop-color:#71C6F1"/>
		<stop  offset="0.7238" style="stop-color:#79D6E4"/>
		<stop  offset="0.8985" style="stop-color:#82EBD1"/>
		<stop  offset="1" style="stop-color:#8AFCC2"/>
	</linearGradient>
	<path fill="url(#SVGID_2_)" d="M912.82,710.307c-19.115-25.373-38.229-50.746-57.345-76.116
		c-38.416-50.997-76.834-101.994-115.252-152.99c-29.334-38.938-58.667-77.877-88-116.814c-2.87-3.81-5.737-7.619-8.607-11.428
		c-0.449,1.71-0.897,3.42-1.347,5.131c25.373-19.115,50.746-38.229,76.118-57.343c50.997-38.418,101.993-76.835,152.989-115.253
		c38.938-29.333,77.877-58.667,116.814-88c3.81-2.87,7.619-5.739,11.428-8.609c-1.71-0.449-3.42-0.897-5.131-1.346
		c19.112,25.373,38.229,50.746,57.343,76.118c38.418,50.997,76.835,101.993,115.253,152.989
		c29.333,38.938,58.667,77.876,88.001,116.814c2.869,3.81,5.739,7.619,8.608,11.428c0.447-1.71,0.896-3.42,1.346-5.131
		c-25.373,19.114-50.745,38.229-76.118,57.343c-50.996,38.418-101.993,76.835-152.989,115.253
		c-38.938,29.333-77.877,58.667-116.813,88.001c-3.812,2.869-7.619,5.739-11.428,8.608c-3.813,2.872-0.082,9.389,3.783,6.477
		c25.373-19.112,50.745-38.229,76.118-57.343c50.996-38.418,101.993-76.835,152.989-115.253
		c38.938-29.334,77.876-58.667,116.813-88.001c3.812-2.869,7.618-5.739,11.43-8.608c1.477-1.11,2.677-3.361,1.346-5.131
		c-19.114-25.373-38.229-50.746-57.343-76.118c-38.418-50.996-76.835-101.993-115.253-152.989
		c-29.334-38.938-58.668-77.876-88.002-116.814c-2.868-3.81-5.738-7.619-8.607-11.428c-1.112-1.477-3.363-2.677-5.131-1.345
		c-25.373,19.114-50.745,38.228-76.117,57.342c-50.997,38.417-101.994,76.835-152.99,115.253
		c-38.938,29.333-77.877,58.667-116.813,88c-3.811,2.87-7.619,5.739-11.43,8.609c-1.477,1.113-2.677,3.363-1.345,5.131
		c19.114,25.373,38.229,50.747,57.342,76.12c38.417,50.994,76.835,101.99,115.253,152.987c29.334,38.938,58.668,77.876,88,116.814
		c2.87,3.81,5.74,7.618,8.609,11.428C909.216,717.903,915.732,714.173,912.82,710.307z"/>
</g>
<path opacity="0.8" fill="none" stroke="#491044" stroke-width="4" stroke-miterlimit="10" enable-background="new    " d="
	M1262.54,176.285L1262.54,176.285c17.496,1.886,30.15,17.598,28.265,35.094l0,0c-1.886,17.496-17.598,30.151-35.094,28.264l0,0
	c-17.495-1.886-30.147-17.597-28.264-35.093l0,0C1229.333,187.054,1245.045,174.399,1262.54,176.285z"/>
<path opacity="0.8" fill="#FFB6F5" enable-background="new    " d="M1285.779,205.678L1285.779,205.678
	c17.496,1.886,30.148,17.598,28.265,35.094l0,0c-1.886,17.496-17.598,30.15-35.094,28.265l0,0
	c-17.496-1.886-30.15-17.598-28.265-35.094l0,0C1252.571,216.447,1268.283,203.792,1285.779,205.678z"/>
<g opacity="0.3">
	
		<polyline fill="none" stroke="#491044" stroke-width="4" stroke-linecap="round" stroke-linejoin="round" stroke-miterlimit="10" points="
		767.135,678.496 759.232,724.481 804.294,731.413 	"/>
	
		<polyline fill="none" stroke="#491044" stroke-width="4" stroke-linecap="round" stroke-linejoin="round" stroke-miterlimit="10" points="
		787.595,664.13 779.691,710.114 824.753,717.046 	"/>
	
		<polyline fill="none" stroke="#491044" stroke-width="4" stroke-linecap="round" stroke-linejoin="round" stroke-miterlimit="10" points="
		808.054,649.763 800.151,695.747 845.213,702.679 	"/>
	
		<polyline fill="none" stroke="#491044" stroke-width="4" stroke-linecap="round" stroke-linejoin="round" stroke-miterlimit="10" points="
		828.514,635.396 820.61,681.381 865.672,688.313 	"/>
</g>
<polygon opacity="0.7" fill="none" stroke="#491044" stroke-width="4" stroke-linecap="round" stroke-linejoin="round" stroke-miterlimit="10" enable-background="new    " points="
	360.033,30.74 310.311,98.204 383.431,64.472 "/>
<g opacity="0.3">
	
		<line fill="none" stroke="#491044" stroke-width="4" stroke-linecap="round" stroke-linejoin="round" stroke-miterlimit="10" x1="703.322" y1="538.322" x2="727.711" y2="562.711"/>
	
		<line fill="none" stroke="#491044" stroke-width="4" stroke-linecap="round" stroke-linejoin="round" stroke-miterlimit="10" x1="727.711" y1="538.322" x2="703.322" y2="562.711"/>
</g>
<line opacity="0.3" fill="none" stroke="#491044" stroke-width="4" stroke-linecap="round" stroke-linejoin="round" stroke-miterlimit="10" enable-background="new    " x1="77" y1="180" x2="112" y2="180"/>
<line opacity="0.3" fill="none" stroke="#491044" stroke-width="4" stroke-linecap="round" stroke-linejoin="round" stroke-miterlimit="10" enable-background="new    " x1="95" y1="162" x2="95" y2="197"/>
<g opacity="0.3">
	<g>
		<g>
			<defs>
				<rect id="SVGID_3_" x="5.611" y="212.083" width="216.47" height="343.022"/>
			</defs>
			<clipPath id="SVGID_4_">
				<use xlink:href="#SVGID_3_"  overflow="visible"/>
			</clipPath>
			<g opacity="0.22" clip-path="url(#SVGID_4_)">
				<path fill="#FC6CE2" d="M-27.002,457.267c-7.733-2.265-11.696,11.271-3.963,13.532
					C-21.299,473.63-17.336,460.098-27.002,457.267z"/>
				<path fill="#FC6CE2" d="M-1.871,464.626c-7.733-2.265-11.695,11.269-3.963,13.532C3.833,480.989,7.795,467.457-1.871,464.626z"
					/>
				<path fill="#FC6CE2" d="M23.261,471.985c-7.733-2.267-11.696,11.269-3.963,13.53C28.964,488.349,32.927,474.816,23.261,471.985z
					"/>
				<path fill="#FC6CE2" d="M48.393,479.345c-7.733-2.265-11.696,11.271-3.963,13.532C54.096,495.708,58.059,482.176,48.393,479.345
					z"/>
				<path fill="#FC6CE2" d="M73.524,486.704c-7.733-2.264-11.695,11.269-3.963,13.532C79.227,503.067,83.19,489.535,73.524,486.704z
					"/>
				<path fill="#FC6CE2" d="M98.655,494.063c-7.732-2.264-11.695,11.271-3.962,13.532
					C104.359,510.427,108.321,496.895,98.655,494.063z"/>
				<path fill="#FC6CE2" d="M123.787,501.423c-7.733-2.264-11.696,11.271-3.963,13.532
					C129.49,517.786,133.453,504.254,123.787,501.423z"/>
				<path fill="#FC6CE2" d="M148.918,508.782c-7.733-2.266-11.695,11.269-3.963,13.533
					C154.622,525.146,158.584,511.613,148.918,508.782z"/>
				<path fill="#FC6CE2" d="M-20.208,434.068c-7.733-2.266-11.696,11.268-3.963,13.53
					C-14.505,450.432-10.543,436.899-20.208,434.068z"/>
				<path fill="#FC6CE2" d="M4.923,441.428c-7.733-2.265-11.696,11.27-3.963,13.532C10.626,457.791,14.589,444.259,4.923,441.428z"
					/>
				<path fill="#FC6CE2" d="M30.054,448.787c-7.733-2.266-11.695,11.268-3.963,13.532C35.757,465.15,39.72,451.618,30.054,448.787z"
					/>
				<path fill="#FC6CE2" d="M55.186,456.146c-7.733-2.267-11.696,11.269-3.963,13.53C60.889,472.51,64.852,458.978,55.186,456.146z"
					/>
				<path fill="#FC6CE2" d="M80.317,463.506c-7.733-2.265-11.696,11.271-3.963,13.532C86.021,479.869,89.983,466.337,80.317,463.506
					z"/>
				<path fill="#FC6CE2" d="M105.449,470.865c-7.733-2.267-11.695,11.269-3.963,13.532
					C111.152,487.229,115.115,473.696,105.449,470.865z"/>
				<path fill="#FC6CE2" d="M130.58,478.225c-7.732-2.264-11.695,11.271-3.962,13.532
					C136.284,494.588,140.246,481.056,130.58,478.225z"/>
				<path fill="#FC6CE2" d="M155.712,485.584c-7.733-2.264-11.696,11.27-3.963,13.532
					C161.415,501.947,165.378,488.415,155.712,485.584z"/>
				<path fill="#FC6CE2" d="M-13.416,410.87c-7.733-2.265-11.695,11.269-3.963,13.532C-7.712,427.232-3.75,413.701-13.416,410.87z"
					/>
				<path fill="#FC6CE2" d="M11.716,418.229c-7.733-2.265-11.696,11.271-3.963,13.532C17.419,434.593,21.382,421.061,11.716,418.229
					z"/>
				<path fill="#FC6CE2" d="M36.848,425.589c-7.733-2.265-11.695,11.27-3.963,13.532C42.551,441.952,46.514,428.42,36.848,425.589z"
					/>
				<path fill="#FC6CE2" d="M61.979,432.948c-7.733-2.267-11.695,11.268-3.963,13.532C67.682,449.313,71.645,435.779,61.979,432.948
					z"/>
				<path fill="#FC6CE2" d="M87.11,440.308c-7.732-2.265-11.695,11.271-3.962,13.532C92.814,456.671,96.776,443.139,87.11,440.308z"
					/>
				<path fill="#FC6CE2" d="M112.242,447.667c-7.733-2.265-11.696,11.269-3.963,13.532
					C117.945,464.03,121.908,450.498,112.242,447.667z"/>
				<path fill="#FC6CE2" d="M137.374,455.026c-7.733-2.267-11.695,11.269-3.963,13.53
					C143.077,471.39,147.04,457.857,137.374,455.026z"/>
				<path fill="#FC6CE2" d="M162.505,462.386c-7.732-2.265-11.695,11.271-3.962,13.532
					C168.208,478.749,172.171,465.217,162.505,462.386z"/>
				<path fill="#FC6CE2" d="M-6.622,387.672c-7.733-2.265-11.696,11.27-3.963,13.532C-0.919,404.035,3.044,390.502-6.622,387.672z"
					/>
				<path fill="#FC6CE2" d="M18.509,395.031c-7.733-2.266-11.695,11.268-3.963,13.532C24.212,411.395,28.175,397.861,18.509,395.031
					z"/>
				<path fill="#FC6CE2" d="M43.641,402.391c-7.733-2.265-11.696,11.27-3.963,13.532C49.344,418.754,53.307,405.221,43.641,402.391z
					"/>
				<path fill="#FC6CE2" d="M68.772,409.75c-7.733-2.265-11.696,11.268-3.963,13.532C74.476,426.113,78.438,412.58,68.772,409.75z"
					/>
				<path fill="#FC6CE2" d="M93.904,417.109c-7.733-2.266-11.695,11.268-3.963,13.53C99.607,433.473,103.57,419.939,93.904,417.109z
					"/>
				<path fill="#FC6CE2" d="M119.035,424.469c-7.732-2.264-11.695,11.27-3.962,13.532
					C124.739,440.832,128.701,427.299,119.035,424.469z"/>
				<path fill="#FC6CE2" d="M144.167,431.828c-7.733-2.264-11.696,11.268-3.963,13.532
					C149.87,448.191,153.833,434.659,144.167,431.828z"/>
				<path fill="#FC6CE2" d="M169.298,439.188c-7.733-2.265-11.695,11.271-3.963,13.532
					C175.001,455.551,178.964,442.019,169.298,439.188z"/>
				<path fill="#FC6CE2" d="M0.171,364.474c-7.733-2.265-11.696,11.268-3.963,13.532C5.875,380.836,9.837,367.304,0.171,364.474z"/>
				<path fill="#FC6CE2" d="M25.303,371.833c-7.733-2.265-11.696,11.268-3.963,13.532C31.006,388.195,34.969,374.664,25.303,371.833
					z"/>
				<path fill="#FC6CE2" d="M50.434,379.192c-7.733-2.265-11.695,11.268-3.963,13.533C56.137,395.555,60.1,382.023,50.434,379.192z"
					/>
				<path fill="#FC6CE2" d="M75.566,386.552c-7.733-2.265-11.696,11.27-3.963,13.532C81.269,402.914,85.231,389.383,75.566,386.552z
					"/>
				<path fill="#FC6CE2" d="M100.697,393.911c-7.733-2.265-11.696,11.269-3.963,13.532
					C106.4,410.273,110.363,396.742,100.697,393.911z"/>
				<path fill="#FC6CE2" d="M125.829,401.271c-7.733-2.267-11.695,11.269-3.963,13.53
					C131.532,417.633,135.495,404.102,125.829,401.271z"/>
				<path fill="#FC6CE2" d="M150.96,408.63c-7.732-2.265-11.695,11.271-3.962,13.532C156.664,424.992,160.626,411.461,150.96,408.63
					z"/>
				<path fill="#FC6CE2" d="M176.092,415.989c-7.733-2.267-11.696,11.269-3.963,13.532
					C181.795,432.352,185.758,418.82,176.092,415.989z"/>
				<path fill="#FC6CE2" d="M6.964,341.275c-7.732-2.265-11.695,11.268-3.963,13.532C12.667,357.638,16.63,344.105,6.964,341.275z"
					/>
				<path fill="#FC6CE2" d="M32.096,348.635c-7.733-2.265-11.696,11.268-3.963,13.532C37.799,364.998,41.762,351.465,32.096,348.635
					z"/>
				<path fill="#FC6CE2" d="M57.228,355.994c-7.733-2.265-11.696,11.268-3.963,13.532C62.931,372.357,66.894,358.825,57.228,355.994
					z"/>
				<path fill="#FC6CE2" d="M82.359,363.354c-7.733-2.265-11.695,11.268-3.963,13.532C88.062,379.716,92.025,366.184,82.359,363.354
					z"/>
				<path fill="#FC6CE2" d="M107.491,370.713c-7.733-2.265-11.696,11.268-3.963,13.532
					C113.194,387.076,117.156,373.543,107.491,370.713z"/>
				<path fill="#FC6CE2" d="M132.622,378.072c-7.733-2.265-11.696,11.268-3.963,13.532
					C138.325,394.436,142.288,380.903,132.622,378.072z"/>
				<path fill="#FC6CE2" d="M157.753,385.432c-7.733-2.265-11.695,11.27-3.963,13.532
					C163.457,401.795,167.419,388.262,157.753,385.432z"/>
				<path fill="#FC6CE2" d="M182.885,392.791c-7.732-2.266-11.695,11.268-3.962,13.532
					C188.588,409.154,192.551,395.621,182.885,392.791z"/>
				<path fill="#FC6CE2" d="M13.758,318.077c-7.733-2.265-11.696,11.268-3.963,13.532C19.461,334.44,23.424,320.907,13.758,318.077z
					"/>
				<path fill="#FC6CE2" d="M38.889,325.437c-7.732-2.265-11.695,11.268-3.963,13.532C44.592,341.799,48.555,328.267,38.889,325.437
					z"/>
				<path fill="#FC6CE2" d="M64.021,332.796c-7.733-2.265-11.696,11.268-3.963,13.532C69.724,349.159,73.687,335.626,64.021,332.796
					z"/>
				<path fill="#FC6CE2" d="M89.152,340.155c-7.733-2.265-11.696,11.268-3.963,13.532C94.855,356.518,98.818,342.985,89.152,340.155
					z"/>
				<path fill="#FC6CE2" d="M114.284,347.515c-7.733-2.265-11.695,11.268-3.963,13.532
					C119.987,363.877,123.95,350.345,114.284,347.515z"/>
				<path fill="#FC6CE2" d="M139.416,354.874c-7.733-2.265-11.696,11.268-3.963,13.532
					C145.119,371.237,149.081,357.705,139.416,354.874z"/>
				<path fill="#FC6CE2" d="M164.547,362.233c-7.733-2.265-11.696,11.268-3.963,13.532
					C170.25,378.596,174.213,365.064,164.547,362.233z"/>
				<path fill="#FC6CE2" d="M189.678,369.593c-7.733-2.265-11.695,11.268-3.963,13.532
					C195.381,385.955,199.344,372.423,189.678,369.593z"/>
				<path fill="#FC6CE2" d="M20.551,294.878c-7.733-2.264-11.696,11.268-3.963,13.533C26.254,311.242,30.217,297.709,20.551,294.878
					z"/>
				<path fill="#FC6CE2" d="M45.683,302.238c-7.733-2.264-11.696,11.268-3.963,13.533C51.386,318.601,55.349,305.068,45.683,302.238
					z"/>
				<path fill="#FC6CE2" d="M70.814,309.597c-7.733-2.264-11.695,11.268-3.963,13.533C76.517,325.96,80.48,312.428,70.814,309.597z"
					/>
				<path fill="#FC6CE2" d="M95.946,316.957c-7.733-2.265-11.696,11.268-3.963,13.532
					C101.649,333.32,105.611,319.787,95.946,316.957z"/>
				<path fill="#FC6CE2" d="M121.077,324.316c-7.733-2.265-11.696,11.268-3.963,13.532
					C126.78,340.679,130.743,327.146,121.077,324.316z"/>
				<path fill="#FC6CE2" d="M146.208,331.676c-7.733-2.265-11.695,11.268-3.963,13.532
					C151.912,348.039,155.875,334.506,146.208,331.676z"/>
				<path fill="#FC6CE2" d="M171.34,339.035c-7.733-2.265-11.696,11.268-3.963,13.532
					C177.043,355.398,181.006,341.866,171.34,339.035z"/>
				<path fill="#FC6CE2" d="M196.472,346.395c-7.733-2.265-11.696,11.268-3.963,13.532
					C202.175,362.757,206.138,349.225,196.472,346.395z"/>
				<path fill="#FC6CE2" d="M27.344,271.68c-7.732-2.264-11.695,11.268-3.962,13.532C33.047,288.043,37.01,274.511,27.344,271.68z"
					/>
				<path fill="#FC6CE2" d="M52.476,279.04c-7.733-2.264-11.696,11.268-3.963,13.533C58.179,295.402,62.142,281.87,52.476,279.04z"
					/>
				<path fill="#FC6CE2" d="M77.607,286.399c-7.733-2.264-11.696,11.268-3.963,13.533C83.311,302.762,87.273,289.229,77.607,286.399
					z"/>
				<path fill="#FC6CE2" d="M102.739,293.758c-7.733-2.264-11.695,11.268-3.963,13.533
					C108.442,310.122,112.405,296.589,102.739,293.758z"/>
				<path fill="#FC6CE2" d="M127.871,301.118c-7.733-2.264-11.696,11.268-3.963,13.533
					C133.574,317.481,137.536,303.948,127.871,301.118z"/>
				<path fill="#FC6CE2" d="M153.002,308.478c-7.733-2.265-11.695,11.268-3.963,13.532
					C158.705,324.84,162.668,311.308,153.002,308.478z"/>
				<path fill="#FC6CE2" d="M178.133,315.837c-7.733-2.265-11.695,11.268-3.963,13.532
					C183.836,332.2,187.799,318.667,178.133,315.837z"/>
				<path fill="#FC6CE2" d="M203.265,323.196c-7.732-2.265-11.695,11.268-3.962,13.532
					C208.968,339.559,212.931,326.027,203.265,323.196z"/>
			</g>
		</g>
	</g>
</g>
<circle opacity="0.3" fill="#FFB6F5" enable-background="new    " cx="1250.573" cy="646.573" r="103.495"/>
<rect x="1183.65" y="592.58" fill="none" width="182.42" height="182.42"/>
<circle opacity="0.9" fill="#FFB6F5" enable-background="new    " cx="694.346" cy="78.346" r="70.268"/>
<rect x="409.735" fill="none" width="260.972" height="67.806"/>
<g opacity="0.9">
	
		<line fill="none" stroke="#491044" stroke-width="4" stroke-linecap="round" stroke-linejoin="round" stroke-miterlimit="10" x1="85" y1="647" x2="149" y2="647"/>
	
		<line fill="none" stroke="#491044" stroke-width="4" stroke-linecap="round" stroke-linejoin="round" stroke-miterlimit="10" x1="85" y1="658" x2="149" y2="658"/>
	
		<line fill="none" stroke="#491044" stroke-width="4" stroke-linecap="round" stroke-linejoin="round" stroke-miterlimit="10" x1="85" y1="669" x2="149" y2="669"/>
	
		<line fill="none" stroke="#491044" stroke-width="4" stroke-linecap="round" stroke-linejoin="round" stroke-miterlimit="10" x1="85" y1="680" x2="149" y2="680"/>
	
		<line fill="none" stroke="#491044" stroke-width="4" stroke-linecap="round" stroke-linejoin="round" stroke-miterlimit="10" x1="85" y1="691" x2="149" y2="691"/>
	
		<line fill="none" stroke="#491044" stroke-width="4" stroke-linecap="round" stroke-linejoin="round" stroke-miterlimit="10" x1="85" y1="702" x2="149" y2="702"/>
</g>
<rect x="113.479" y="675.771" opacity="0.3" fill="#FFB6F5" enable-background="new    " width="63.725" height="63.725"/>
<g opacity="0.3">
	<g>
		<g>
			<defs>
				
					<rect id="SVGID_5_" x="503.133" y="725.208" transform="matrix(-0.6459 0.7634 -0.7634 -0.6459 1528.7073 812.9263)" width="145.368" height="71.596"/>
			</defs>
			<clipPath id="SVGID_6_">
				<use xlink:href="#SVGID_5_"  overflow="visible"/>
			</clipPath>
			
				<rect x="523.586" y="711.36" transform="matrix(0.9072 -0.4208 0.4208 0.9072 -261.1713 302.7293)" clip-path="url(#SVGID_6_)" fill="none" stroke="#491044" stroke-width="4" stroke-linecap="round" stroke-linejoin="round" stroke-miterlimit="10" width="63.731" height="63.73"/>
		</g>
	</g>
</g>
</svg>
